{
  "asset": {
    "version": "2.0",
    "generator": "THREE.GLTFExporter"
  },
  "scenes": [
    {
      "nodes": [
        0
      ]
    }
  ],
  "scene": 0,
  "nodes": [
    {
      "children": [
        22
      ],
      "matrix": [
        0.01,
        0,
        0,
        0,
        0,
        0.01,
        0,
        0,
        0,
        0,
        0.01,
        0,
        0,
        0,
        0,
        1
      ]
    },
    {
      "matrix": [
        0.9999999999999994,
        1.942890293094024e-16,
        -1.942890293094024e-16,
        0,
        2.7755575615628914e-16,
        0.9999999999999998,
        0,
        0,
        -1.3877787807814457e-16,
        1.1102230246251565e-16,
        1,
        0,
        -1.8651746813702627e-14,
        -5.5067062021407783e-14,
        -3.1554436208840472e-30,
        1
      ],
      "name": "Ellipse",
      "mesh": 0
    },
    {
      "matrix": [
        1,
        0,
        0,
        0,
        0,
        1,
        0,
        0,
        0,
        0,
        1,
        0,
        0,
        53,
        0,
        1
      ],
      "name": "Clone 0",
      "children": [
        1
      ]
    },
    {
      "matrix": [
        0.9999999999999994,
        1.942890293094024e-16,
        -1.942890293094024e-16,
        0,
        2.7755575615628914e-16,
        0.9999999999999998,
        0,
        0,
        -1.3877787807814457e-16,
        1.1102230246251565e-16,
        1,
        0,
        -1.8651746813702627e-14,
        -5.5067062021407783e-14,
        -3.1554436208840472e-30,
        1
      ],
      "name": "Ellipse",
      "mesh": 0
    },
    {
      "matrix": [
        1,
        0,
        0,
        0,
        0,
        1,
        0,
        0,
        0,
        0,
        1,
        0,
        37.47665940288702,
        37.476659402887016,
        0,
        1
      ],
      "name": "Clone 1",
      "children": [
        3
      ]
    },
    {
      "matrix": [
        0.9999999999999994,
        1.942890293094024e-16,
        -1.942890293094024e-16,
        0,
        2.7755575615628914e-16,
        0.9999999999999998,
        0,
        0,
        -1.3877787807814457e-16,
        1.1102230246251565e-16,
        1,
        0,
        -1.8651746813702627e-14,
        -5.5067062021407783e-14,
        -3.1554436208840472e-30,
        1
      ],
      "name": "Ellipse",
      "mesh": 0
    },
    {
      "matrix": [
        1,
        0,
        0,
        0,
        0,
        1,
        0,
        0,
        0,
        0,
        1,
        0,
        53,
        1.176836406102666e-14,
        0,
        1
      ],
      "name": "Clone 2",
      "children": [
        5
      ]
    },
    {
      "matrix": [
        0.9999999999999994,
        1.942890293094024e-16,
        -1.942890293094024e-16,
        0,
        2.7755575615628914e-16,
        0.9999999999999998,
        0,
        0,
        -1.3877787807814457e-16,
        1.1102230246251565e-16,
        1,
        0,
        -1.8651746813702627e-14,
        -5.5067062021407783e-14,
        -3.1554436208840472e-30,
        1
      ],
      "name": "Ellipse",
      "mesh": 0
    },
    {
      "matrix": [
        1,
        0,
        0,
        0,
        0,
        1,
        0,
        0,
        0,
        0,
        1,
        0,
        37.47665940288703,
        -37.476659402887016,
        0,
        1
      ],
      "name": "Clone 3",
      "children": [
        7
      ]
    },
    {
      "matrix": [
        0.9999999999999994,
        1.942890293094024e-16,
        -1.942890293094024e-16,
        0,
        2.7755575615628914e-16,
        0.9999999999999998,
        0,
        0,
        -1.3877787807814457e-16,
        1.1102230246251565e-16,
        1,
        0,
        -1.8651746813702627e-14,
        -5.5067062021407783e-14,
        -3.1554436208840472e-30,
        1
      ],
      "name": "Ellipse",
      "mesh": 0
    },
    {
      "matrix": [
        1,
        0,
        0,
        0,
        0,
        1,
        0,
        0,
        0,
        0,
        1,
        0,
        6.490628035480972e-15,
        -53,
        0,
        1
      ],
      "name": "Clone 4",
      "children": [
        9
      ]
    },
    {
      "matrix": [
        0.9999999999999994,
        1.942890293094024e-16,
        -1.942890293094024e-16,
        0,
        2.7755575615628914e-16,
        0.9999999999999998,
        0,
        0,
        -1.3877787807814457e-16,
        1.1102230246251565e-16,
        1,
        0,
        -1.8651746813702627e-14,
        -5.5067062021407783e-14,
        -3.1554436208840472e-30,
        1
      ],
      "name": "Ellipse",
      "mesh": 0
    },
    {
      "matrix": [
        1,
        0,
        0,
        0,
        0,
        1,
        0,
        0,
        0,
        0,
        1,
        0,
        -37.476659402887016,
        -37.476659402887016,
        0,
        1
      ],
      "name": "Clone 5",
      "children": [
        11
      ]
    },
    {
      "matrix": [
        0.9999999999999994,
        1.942890293094024e-16,
        -1.942890293094024e-16,
        0,
        2.7755575615628914e-16,
        0.9999999999999998,
        0,
        0,
        -1.3877787807814457e-16,
        1.1102230246251565e-16,
        1,
        0,
        -1.8651746813702627e-14,
        -5.5067062021407783e-14,
        -3.1554436208840472e-30,
        1
      ],
      "name": "Ellipse",
      "mesh": 0
    },
    {
      "matrix": [
        1,
        0,
        0,
        0,
        0,
        1,
        0,
        0,
        0,
        0,
        1,
        0,
        -53,
        -1.176836406102666e-14,
        0,
        1
      ],
      "name": "Clone 6",
      "children": [
        13
      ]
    },
    {
      "matrix": [
        0.9999999999999994,
        1.942890293094024e-16,
        -1.942890293094024e-16,
        0,
        2.7755575615628914e-16,
        0.9999999999999998,
        0,
        0,
        -1.3877787807814457e-16,
        1.1102230246251565e-16,
        1,
        0,
        -1.8651746813702627e-14,
        -5.5067062021407783e-14,
        -3.1554436208840472e-30,
        1
      ],
      "name": "Ellipse",
      "mesh": 0
    },
    {
      "matrix": [
        1,
        0,
        0,
        0,
        0,
        1,
        0,
        0,
        0,
        0,
        1,
        0,
        -37.47665940288703,
        37.476659402887016,
        0,
        1
      ],
      "name": "Clone 7",
      "children": [
        15
      ]
    },
    {
      "matrix": [
        0.9771709686782378,
        -0.05339453948828623,
        0.20563540824787005,
        0,
        0.12240591638229176,
        0.9326031955645325,
        -0.33951151859315987,
        0,
        -0.17364817766693041,
        0.3569317900883251,
        0.917848575538089,
        0,
        5.209445330007894,
        -10.707953702649718,
        -27.535457266142664,
        1.0000000000000002
      ],
      "name": "Ellipse Clones",
      "children": [
        2,
        4,
        6,
        8,
        10,
        12,
        14,
        16
      ]
    },
    {
      "matrix": [
        1,
        0,
        0,
        0,
        0,
        1,
        0,
        0,
        0,
        0,
        1,
        0,
        -13.847056306579645,
        24.11225809107964,
        35.82546397977265,
        1
      ],
      "name": "Group",
      "children": [
        17
      ]
    },
    {
      "matrix": [
        0.5883484054145521,
        0.39223227027636803,
        -0.7071067811865475,
        0,
        -0.554700196225229,
        0.8320502943378437,
        0,
        0,
        0.588348405414552,
        0.392232270276368,
        0.7071067811865476,
        0,
        0,
        0,
        0,
        1
      ],
      "name": "Directional Light",
      "extensions": {
        "KHR_lights_punctual": {
          "light": 0
        }
      }
    },
    {
      "matrix": [
        0.913545457642601,
        6.938893903907228e-18,
        0.4067366430758001,
        0,
        0.10527118956908335,
        0.9659258262890683,
        -0.23644296300480325,
        0,
        -0.39287742804503406,
        0.2588190451025207,
        0.8824171510260543,
        0,
        -392.8774280450342,
        258.81904510252076,
        882.4171510260546,
        1
      ],
      "camera": 0
    },
    {
      "matrix": [
        1,
        0,
        0,
        0,
        0,
        1,
        0,
        0,
        0,
        0,
        1,
        0,
        0,
        1,
        0,
        1
      ],
      "name": "Default Ambient Light"
    },
    {
      "name": "Scene 1",
      "children": [
        18,
        19,
        20,
        21
      ]
    }
  ],
  "bufferViews": [
    {
      "buffer": 0,
      "byteOffset": 0,
      "byteLength": 9744,
      "target": 34962,
      "byteStride": 12
    },
    {
      "buffer": 0,
      "byteOffset": 9744,
      "byteLength": 9744,
      "target": 34962,
      "byteStride": 12
    },
    {
      "buffer": 0,
      "byteOffset": 19488,
      "byteLength": 6496,
      "target": 34962,
      "byteStride": 8
    },
    {
      "buffer": 0,
      "byteOffset": 25984,
      "byteLength": 16080,
      "target": 34963
    }
  ],
  "buffers": [
    {
      "byteLength": 42064,
      "uri": "data:application/octet-stream;base64,"
    }
  ],
  "accessors": [
    {
      "bufferView": 0,
      "componentType": 5126,
      "count": 812,
      "max": [
        34.38585662841797,
        34.45656967163086,
        60
      ],
      "min": [
        -34.38585662841797,
        -34.45656967163086,
        0
      ],
      "type": "VEC3"
    },
    {
      "bufferView": 1,
      "componentType": 5126,
      "count": 812,
      "max": [
        0.9983469247817993,
        0.9983333349227905,
        1
      ],
      "min": [
        -0.9983469247817993,
        -0.9983333349227905,
        -1
      ],
      "type": "VEC3"
    },
    {
      "bufferView": 2,
      "componentType": 5126,
      "count": 812,
      "max": [
        1,
        1
      ],
      "min": [
        0,
        0
      ],
      "type": "VEC2"
    },
    {
      "bufferView": 3,
      "componentType": 5125,
      "count": 4020,
      "max": [
        811
      ],
      "min": [
        0
      ],
      "type": "SCALAR"
    }
  ],
  "meshes": [
    {
      "primitives": [
        {
          "mode": 4,
          "attributes": {
            "POSITION": 0,
            "NORMAL": 1,
            "TEXCOORD_0": 2
          },
          "extras": {
            "shape": {
              "points": [
                -34.38585564385384,
                0,
                -34.38585564385384,
                -19.029837722092644,
                -34.38585564385384,
                19.029837722092644,
                0,
                0,
                34.45656924074756,
                -18.990783680924732,
                34.45656924074756,
                18.990783680924732,
                34.45656924074756,
                0,
                34.38585564385384,
                0,
                34.38585564385384,
                19.029837722092644,
                34.38585564385384,
                -19.029837722092644,
                0,
                0,
                -34.45656924074756,
                18.990783680924732,
                -34.45656924074756,
                -18.990783680924732,
                -34.45656924074756,
                0
              ],
              "shapeHoles": [],
              "isClosed": true,
              "roundness": 0
            },
            "parameters": {
              "width": 68.77171128770767,
              "depth": 60,
              "spikes": 57,
              "angle": 360,
              "innerRadius": 0,
              "extrudeBevelSize": 5,
              "extrudeBevelSegments": 5,
              "height": 68.91313848149512,
              "type": "EllipseGeometry"
            },
            "type": "EllipseGeometry"
          },
          "indices": 3
        }
      ]
    }
  ],
  "extensions": {
    "KHR_lights_punctual": {
      "lights": [
        {
          "name": "Directional Light",
          "color": [
            1,
            1,
            1
          ],
          "intensity": 2.199114857512855,
          "type": "directional"
        }
      ]
    }
  },
  "cameras": [
    {
      "type": "perspective",
      "perspective": {
        "aspectRatio": 1.3493635077793493,
        "yfov": 0.7853981633974483,
        "zfar": 100000,
        "znear": 70
      }
    }
  ],
  "extensionsUsed": [
    "KHR_lights_punctual"
  ]
}